---
title: Dice Simulation Strategy 1
---
stateDiagram-v2
    [*] --> ChecksRolls
    ChecksRolls --> Decision: if rolls > 0
    Decision --> ShouldRoll
    ShouldRoll --> Roll : if EV Sum > die_result
    ShouldRoll --> Take : if EV Sum <= die_result
    Roll --> DecreaseRolls : rolls -= 1
    Take --> IncreaseBankroll : bankroll += die_result
    IncreaseBankroll --> ChecksRolls
    DecreaseRolls --> ChecksRolls
    ChecksRolls --> GameOver: if rolls == 0

